<svg height="200" viewBox="0 0 280 280" width="200" xmlns="http://www.w3.org/2000/svg" xmlns:xlink="http://www.w3.org/1999/xlink"><mask id="a" fill="#fff"><path d="m.66878017.01853938h159.68757783v241.98146062h-159.68757783z" fill="#fff" fill-rule="evenodd"></path></mask><g fill="#1d1d1b" fill-rule="evenodd" transform="translate(54 13)"><path d="m148.9706 79.2475c-.152-2.208-.267-4.419-.462-6.623-.702-7.911-2.705-15.5-6.316-22.561-11.363-22.214-29.544-34.834-54.264-37.983-8.234-1.05-16.411-.423-24.459 1.628-29.293 7.462-49.864 32.636-51.314 62.857-.483 10.071 1.195 19.796 5.158 29.09 12.757 29.913 45.039 47.265 78.139 39.944 31.629-6.997 53.424-34.248 53.518-66.352m-68.61 162.46c-1.103-1.921-2.213-3.838-3.307-5.764-2.74-4.824-5.474-9.652-8.208-14.48-1.58-2.791-3.157-5.585-4.734-8.378-2.724-4.827-5.451-9.652-8.17-14.482-3.659-6.496-7.304-12.999-10.971-19.49-3.055-5.405-6.13-10.8-9.2-16.196-3.002-5.276-6.023-10.542-9.008-15.828-2.964-5.246-5.878-10.52-8.843-15.765-2.931-5.185-6.044-10.275-8.809-15.547-2.937-5.598-4.87-11.607-6.335-17.756-1.786-7.491-2.396-15.106-1.983-22.771.546-10.142 2.892-19.88 7.181-29.117 6.472-13.938 16.174-25.089 29.069-33.418 8.024-5.183 16.745-8.732 26.093-10.796 7.431-1.641 14.937-2.196 22.5-1.756 8.231.48 16.219 2.243 23.917 5.242 7.231 2.819 13.932 6.568 20.061 11.342 13.326 10.379 22.487 23.645 27.495 39.758 1.785 5.743 3.008 11.628 3.153 17.655.113 4.731.202 9.493-.208 14.197-.654 7.5-2.625 14.732-5.42 21.739-2.129 5.338-5.18 10.176-7.977 15.155-1.794 3.191-3.579 6.389-5.38 9.577-2.554 4.519-5.122 9.03-7.681 13.547-1.719 3.034-3.433 6.071-5.149 9.106-2.901 5.132-5.803 10.263-8.704 15.395-1.871 3.309-3.737 6.622-5.611 9.93-2.886 5.094-5.778 10.184-8.664 15.278-1.701 3.002-3.391 6.01-5.092 9.012-2.94 5.189-5.887 10.374-8.826 15.563-1.684 2.974-3.366 5.948-5.036 8.93-1.753 3.129-3.493 6.264-5.235 9.399-.184.331-.348.674-.52 1.012-.133-.098-.266-.195-.398-.293" mask="url(#a)" transform="translate(.0625 .857188)"></path><path d="m67.0732 67.7970875h-13.855v-9.581h13.831v-15.653h12.572c.03.162.098.357.098.553.048 13.292.116 26.584.119 39.876.002 4.042-.202 8.084-.258 12.127-.033 2.392.094 4.777.934 7.0589995 1.227 3.334 3.889 5.007 7.395 4.584 1.215-.147 2.428-.366 3.614-.664 1.182-.296 2.33-.732 3.61-1.144 1.574 2.781 3.157 5.575 4.783 8.445-2.426 1.91-5.059 3.26-7.977 3.991-5.708 1.43-11.256.705-16.532-1.727-4.688-2.161-7.132-6.149-7.863-11.125-.391-2.662-.432-5.3909995-.448-8.0919995-.052-9.072-.022-18.145-.023-27.218z"></path><path d="m101.4496 70.1466875c-4.264-.006-7.364-3.113-7.361-7.379.003-3.983 3.345-7.356 7.288-7.355 4.084.001 7.436 3.355 7.443 7.447.006 4.124-3.198 7.292-7.37 7.287"></path></g></svg>